<svg width="17" height="12" viewBox="0 0 17 12" fill="none" xmlns="http://www.w3.org/2000/svg">
<path fill-rule="evenodd" clip-rule="evenodd" d="M15.5759 2.15626C15.8801 2.46048 16.0895 2.85953 16.1567 3.30467C16.1817 3.47588 16.1804 3.62338 16.1804 3.79195V6.56946C16.1804 6.7196 16.1843 6.86842 16.1711 7.01855C16.1132 7.64017 15.7655 8.21305 15.2414 8.55152C14.5776 8.98217 13.819 8.8834 13.0249 8.8834C13.287 9.6051 13.8151 10.2715 14.3853 10.7759L14.172 11.1763L14.1654 11.1736C12.7839 10.818 11.3273 10.0015 10.4396 8.88208C9.89047 8.87681 9.44138 8.8834 8.89352 8.80965C8.29034 9.17577 7.57258 9.41414 6.86405 9.41414C6.40442 9.98703 5.86973 10.4769 5.25865 10.8786C4.59884 11.3119 3.85343 11.6412 3.02242 11.8598C2.98159 11.8703 2.94076 11.8808 2.89862 11.8861C2.75507 11.9019 2.60493 11.8506 2.50221 11.7347C2.33364 11.545 2.35207 11.254 2.54172 11.0854C3.07905 10.61 3.37932 10.0884 3.59399 9.41677C2.54567 9.41677 1.66856 9.5274 0.815158 8.67531C-0.250279 7.60856 0.0144336 5.12869 0.0684298 3.6405C0.0855506 3.16243 0.052626 2.84768 0.243588 2.34854C0.49118 1.69795 1.0048 1.17248 1.65407 0.911715C2.2612 0.666757 2.92101 0.727338 3.56106 0.727338H7.45274C7.73852 0.727338 7.97163 0.726021 8.264 0.794504C8.75655 0.907764 9.20301 1.16984 9.55201 1.55045L14.0455 1.55177C14.6395 1.55177 15.1492 1.72824 15.5759 2.15626ZM13.1579 6.35611H11.9766L11.8133 6.94348H10.7544C11.1087 5.94258 11.4643 4.94036 11.8185 3.93814C11.9463 3.57597 12.0911 2.97674 12.556 2.97674C13.0381 2.97674 13.1974 3.52592 13.3317 3.90521L14.409 6.94217H13.3238L13.1579 6.35611ZM12.9406 5.58568L12.5692 4.30557L12.2005 5.58568H12.9406ZM10.948 10.1582L10.1802 9.52345L9.22144 10.7074L7.82939 9.49974L7.17222 10.2425L8.68016 11.4423L9.90232 11.3369L10.948 10.1582ZM10.092 2.0193C10.5424 3.7722 11.0231 6.8513 9.81408 8.4106C10.0999 8.41455 10.3817 8.41455 10.6675 8.41455C11.3154 9.27586 12.1478 9.87772 13.1276 10.3176C13.2198 10.3584 13.3133 10.3992 13.4068 10.4361C13.0736 10.0331 12.7812 9.56823 12.5955 9.07568C12.5099 8.84784 12.4638 8.64766 12.4059 8.41455C12.6746 8.41455 12.938 8.41719 13.2079 8.4264C13.8045 8.44748 14.4327 8.4646 14.9292 8.18671C15.1439 8.06687 15.3164 7.89698 15.4521 7.69285C15.5719 7.50979 15.6562 7.30039 15.6931 7.07782C15.7207 6.90924 15.7115 6.72355 15.7115 6.55234V3.70108C15.7115 3.62601 15.7128 3.55753 15.7076 3.48246C15.6773 3.09659 15.5061 2.74627 15.2453 2.48551C14.9925 2.23133 14.654 2.06276 14.28 2.02588C14.1838 2.01666 14.089 2.01798 13.9929 2.01798L10.092 2.0193ZM2.79063 2.49736H4.56065V1.99822H5.35084V2.49736H7.12744V3.31652H6.76264C6.73367 3.54699 6.67967 3.77615 6.60592 4.00267H6.60724C6.53217 4.23314 6.42944 4.46493 6.30697 4.69408C6.09888 5.08259 5.83022 5.4553 5.51941 5.81352C6.01723 6.40879 6.63358 6.92636 7.36977 7.39784L6.96282 8.03131C6.19107 7.53613 5.53521 6.9909 4.99657 6.3627C4.51455 6.82891 3.96801 7.26351 3.39381 7.65992L2.96579 7.04094C3.53341 6.64848 4.07205 6.21915 4.53563 5.76215C4.10761 5.13659 3.781 4.43464 3.55448 3.62733L4.28013 3.42451C4.46583 4.08695 4.72659 4.66906 5.0611 5.19058C5.28894 4.91402 5.48649 4.63087 5.64321 4.33981C5.74198 4.15544 5.82627 3.96316 5.8908 3.76693H5.89212C5.94084 3.62074 5.97772 3.46929 6.00274 3.31652H2.79063V2.49736Z" fill="#868686"/>
</svg>
